<svg width="139" height="133" viewBox="31 21 139 133" fill="none" xmlns="http://www.w3.org/2000/svg"><path d="M86.2408 105.043L128.3 74.0201C130.362 72.4993 133.309 73.0925 134.292 75.455C139.463 87.9137 137.153 102.886 126.864 113.166C116.576 123.446 102.261 125.7 89.1773 120.566L74.884 127.178C95.3848 141.179 120.279 137.717 135.836 122.162C148.175 109.833 151.997 93.0266 148.423 77.8713L148.456 77.9035C143.274 55.6394 149.73 46.7402 162.954 28.5428C163.267 28.1113 163.58 27.6798 163.893 27.2375L146.491 44.626V44.5721L86.2302 105.054" fill="black"></path><path d="M77.5614 112.583C62.8469 98.5385 65.3838 76.8029 77.939 64.2689C87.2231 54.992 102.434 51.2059 115.713 56.7719L129.974 50.1919C127.404 48.3365 124.111 46.341 120.333 44.9387C103.255 37.9164 82.8078 41.4114 68.9248 55.2725C55.5707 68.6158 51.3712 89.1325 58.5827 106.64C63.9696 119.724 55.1389 128.979 46.2433 138.321C43.091 141.632 39.9279 144.944 37.3802 148.45L77.5504 112.594" fill="black"></path></svg>