<svg width="416" height="180" viewBox="0 0 416 180" fill="none" xmlns="http://www.w3.org/2000/svg"><path d="M326.148 118.933V57.2217H335.923V97.9492L356.596 74.2484H368.447L349.849 94.5598L368.62 118.933H356.942L341.739 97.9905L335.923 97.9492V118.933H326.148Z" fill="black"></path><path d="M296.506 119.97C281.974 119.97 274.102 109.685 274.102 96.5477C274.102 83.3239 281.974 73.125 296.506 73.125C311.124 73.125 318.909 83.3239 318.909 96.5477C318.909 109.685 311.124 119.97 296.506 119.97ZM284.309 96.5477C284.309 106.747 289.845 111.846 296.506 111.846C303.253 111.846 308.702 106.747 308.702 96.5477C308.702 86.3489 303.253 81.1629 296.506 81.1629C289.845 81.1629 284.309 86.3489 284.309 96.5477Z" fill="black"></path><path d="M246.898 118.933V81.336L255.115 74.2485H272.589V82.5459H256.673V118.933H246.898Z" fill="black"></path><path d="M209.523 120.075C190.893 120.075 179.785 106.574 179.785 88.164C179.785 69.5814 191.29 55.7524 209.887 55.7524C224.419 55.7524 235.059 63.1855 237.567 77.0144H226.408C224.765 69.1492 218.191 64.7413 209.887 64.7413C196.479 64.7413 190.597 76.3231 190.597 88.164C190.597 100.005 196.479 111.5 209.887 111.5C222.689 111.5 228.312 102.252 228.744 94.5598H209.455V85.6106H238.605L238.557 90.2894C238.557 107.676 231.458 120.075 209.523 120.075Z" fill="black"></path><path d="M86.2408 105.043L128.3 74.0201C130.362 72.4993 133.309 73.0925 134.292 75.455C139.463 87.9137 137.153 102.886 126.864 113.166C116.576 123.446 102.261 125.7 89.1773 120.566L74.884 127.178C95.3848 141.179 120.279 137.717 135.836 122.162C148.175 109.833 151.997 93.0266 148.423 77.8713L148.456 77.9035C143.274 55.6394 149.73 46.7402 162.954 28.5428C163.267 28.1113 163.58 27.6798 163.893 27.2375L146.491 44.626V44.5721L86.2302 105.054" fill="black"></path><path d="M77.5614 112.583C62.8469 98.5385 65.3838 76.8029 77.939 64.2689C87.2231 54.992 102.434 51.2059 115.713 56.7719L129.974 50.1919C127.404 48.3365 124.111 46.341 120.333 44.9387C103.255 37.9164 82.8078 41.4114 68.9248 55.2725C55.5707 68.6158 51.3712 89.1325 58.5827 106.64C63.9696 119.724 55.1389 128.979 46.2433 138.321C43.091 141.632 39.9279 144.944 37.3802 148.45L77.5504 112.594" fill="black"></path></svg>