<svg xmlns="http://www.w3.org/2000/svg" viewBox="0 0 240 240">
  <rect width="240" height="240" rx="40" fill="#0a0a0f"/>
  <g transform="translate(18.79, 231) scale(0.1, -0.1)" fill="#FAFAF7">
    <path d="M544 1614 l-537 -596 29 -27 c71 -69 1044 -941 1049 -941 8 0 6 334 -3 345 -4 6 -164 152 -355 324 -191 173 -346 317 -345 321 2 5 162 184 356 400 l352 391 0 189 c0 105 -2 190 -5 190 -2 0 -246 -268 -541 -596z"/>
    <path d="M1280 1939 l1 -174 260 -235 c143 -129 272 -244 286 -254 l26 -20 83 90 c46 49 83 94 83 99 -1 9 -675 622 -720 654 -19 13 -19 9 -19 -160z"/>
    <path d="M1435 558 l-155 -172 0 -189 c0 -104 4 -187 8 -185 12 4 512 560 512 568 0 10 -187 150 -199 150 -6 0 -80 -77 -166 -172z"/>
  </g>
</svg>
